<mxfile host="app.diagrams.net" modified="2022-10-08T06:07:09.583Z" agent="5.0 (Macintosh)" etag="Gaivp9XX3HhuChj37F3-" version="20.3.7" type="github">
  <diagram id="U68nCC1omK0nLJ4UllcO" name="Page-1">
    <mxGraphModel dx="946" dy="574" grid="1" gridSize="10" guides="1" tooltips="1" connect="1" arrows="1" fold="1" page="1" pageScale="1" pageWidth="850" pageHeight="1100" math="0" shadow="0">
      <root>
        <mxCell id="0" />
        <mxCell id="1" parent="0" />
        <mxCell id="PAPNwuoS_5wBKvBICMgl-1" value="Availability zone" style="sketch=0;outlineConnect=0;gradientColor=none;html=1;whiteSpace=wrap;fontSize=12;fontStyle=0;shape=mxgraph.aws4.group;grIcon=mxgraph.aws4.group_availability_zone;strokeColor=#545B64;fillColor=none;verticalAlign=top;align=left;spacingLeft=30;fontColor=#545B64;dashed=1;" vertex="1" parent="1">
          <mxGeometry x="470" y="250" width="320" height="470" as="geometry" />
        </mxCell>
        <mxCell id="PAPNwuoS_5wBKvBICMgl-2" value="Availability zone" style="sketch=0;outlineConnect=0;gradientColor=none;html=1;whiteSpace=wrap;fontSize=12;fontStyle=0;shape=mxgraph.aws4.group;grIcon=mxgraph.aws4.group_availability_zone;strokeColor=#545B64;fillColor=none;verticalAlign=top;align=left;spacingLeft=30;fontColor=#545B64;dashed=1;" vertex="1" parent="1">
          <mxGeometry x="60" y="250" width="320" height="470" as="geometry" />
        </mxCell>
        <mxCell id="PAPNwuoS_5wBKvBICMgl-9" value="Production Web Server [autoscaling in the future]" style="group;rounded=0;labelPosition=center;verticalLabelPosition=bottom;align=center;verticalAlign=top;" vertex="1" connectable="0" parent="1">
          <mxGeometry x="490" y="290" width="280" height="130" as="geometry" />
        </mxCell>
        <mxCell id="PAPNwuoS_5wBKvBICMgl-3" value="Auto Scaling Group" style="sketch=0;outlineConnect=0;gradientColor=none;html=1;whiteSpace=wrap;fontSize=12;fontStyle=0;shape=mxgraph.aws4.groupCenter;grIcon=mxgraph.aws4.group_auto_scaling_group;grStroke=0;strokeColor=#879196;fillColor=#ECEFEF;verticalAlign=top;align=center;fontColor=#879196;dashed=0;spacingTop=25;" vertex="1" parent="PAPNwuoS_5wBKvBICMgl-9">
          <mxGeometry width="280" height="130" as="geometry" />
        </mxCell>
        <mxCell id="PAPNwuoS_5wBKvBICMgl-4" value="" style="fontColor=#0066CC;verticalAlign=top;verticalLabelPosition=bottom;labelPosition=center;align=center;html=1;outlineConnect=0;fillColor=#CCCCCC;strokeColor=#6881B3;gradientColor=none;gradientDirection=north;strokeWidth=2;shape=mxgraph.networks.proxy_server;" vertex="1" parent="PAPNwuoS_5wBKvBICMgl-9">
          <mxGeometry x="30" y="60" width="45" height="45" as="geometry" />
        </mxCell>
        <mxCell id="PAPNwuoS_5wBKvBICMgl-5" value="" style="fontColor=#0066CC;verticalAlign=top;verticalLabelPosition=bottom;labelPosition=center;align=center;html=1;outlineConnect=0;fillColor=#CCCCCC;strokeColor=#6881B3;gradientColor=none;gradientDirection=north;strokeWidth=2;shape=mxgraph.networks.proxy_server;" vertex="1" parent="PAPNwuoS_5wBKvBICMgl-9">
          <mxGeometry x="100" y="60" width="45" height="45" as="geometry" />
        </mxCell>
        <mxCell id="PAPNwuoS_5wBKvBICMgl-6" value="" style="verticalAlign=top;verticalLabelPosition=bottom;labelPosition=center;align=center;html=1;outlineConnect=0;fillColor=#f5f5f5;strokeColor=#666666;gradientDirection=north;strokeWidth=0;shape=mxgraph.networks.proxy_server;shadow=0;fillStyle=auto;fontColor=#333333;" vertex="1" parent="PAPNwuoS_5wBKvBICMgl-9">
          <mxGeometry x="170" y="60" width="45" height="45" as="geometry" />
        </mxCell>
        <mxCell id="PAPNwuoS_5wBKvBICMgl-7" value="" style="verticalAlign=top;verticalLabelPosition=bottom;labelPosition=center;align=center;html=1;outlineConnect=0;fillColor=#f5f5f5;strokeColor=#666666;gradientDirection=north;strokeWidth=0;shape=mxgraph.networks.proxy_server;shadow=0;fillStyle=auto;fontColor=#333333;" vertex="1" parent="PAPNwuoS_5wBKvBICMgl-9">
          <mxGeometry x="230" y="60" width="45" height="45" as="geometry" />
        </mxCell>
        <mxCell id="PAPNwuoS_5wBKvBICMgl-11" value="Git Repo" style="verticalLabelPosition=bottom;html=1;verticalAlign=top;align=center;strokeColor=none;fillColor=#00BEF2;shape=mxgraph.azure.git_repository;shadow=0;fillStyle=auto;strokeWidth=0;" vertex="1" parent="1">
          <mxGeometry x="490" y="650" width="50" height="50" as="geometry" />
        </mxCell>
        <mxCell id="PAPNwuoS_5wBKvBICMgl-16" style="edgeStyle=orthogonalEdgeStyle;rounded=0;orthogonalLoop=1;jettySize=auto;html=1;" edge="1" parent="1" source="PAPNwuoS_5wBKvBICMgl-12" target="PAPNwuoS_5wBKvBICMgl-15">
          <mxGeometry relative="1" as="geometry">
            <Array as="points">
              <mxPoint x="680" y="675" />
              <mxPoint x="680" y="675" />
            </Array>
          </mxGeometry>
        </mxCell>
        <mxCell id="PAPNwuoS_5wBKvBICMgl-12" value="" style="shape=image;html=1;verticalAlign=top;verticalLabelPosition=bottom;labelBackgroundColor=#ffffff;imageAspect=0;aspect=fixed;image=https://cdn0.iconfinder.com/data/icons/phosphor-fill-vol-3/256/git-branch-fill-128.png;rounded=0;shadow=0;fillStyle=auto;strokeWidth=0;fillColor=#D6D6D6;" vertex="1" parent="1">
          <mxGeometry x="560" y="650" width="50" height="50" as="geometry" />
        </mxCell>
        <mxCell id="PAPNwuoS_5wBKvBICMgl-14" style="edgeStyle=orthogonalEdgeStyle;rounded=0;orthogonalLoop=1;jettySize=auto;html=1;" edge="1" parent="1" source="PAPNwuoS_5wBKvBICMgl-13" target="PAPNwuoS_5wBKvBICMgl-4">
          <mxGeometry relative="1" as="geometry" />
        </mxCell>
        <mxCell id="PAPNwuoS_5wBKvBICMgl-13" value="" style="shape=image;html=1;verticalAlign=top;verticalLabelPosition=bottom;labelBackgroundColor=#ffffff;imageAspect=0;aspect=fixed;image=https://cdn2.iconfinder.com/data/icons/css-vol-2/24/git-pull-128.png;rounded=0;shadow=0;fillStyle=auto;strokeWidth=0;fillColor=#D6D6D6;" vertex="1" parent="1">
          <mxGeometry x="500" y="590" width="48" height="48" as="geometry" />
        </mxCell>
        <mxCell id="PAPNwuoS_5wBKvBICMgl-25" style="edgeStyle=orthogonalEdgeStyle;rounded=0;orthogonalLoop=1;jettySize=auto;html=1;fontColor=#000000;" edge="1" parent="1" source="PAPNwuoS_5wBKvBICMgl-15" target="PAPNwuoS_5wBKvBICMgl-23">
          <mxGeometry relative="1" as="geometry" />
        </mxCell>
        <mxCell id="PAPNwuoS_5wBKvBICMgl-15" value="Development Server" style="fontColor=#0066CC;verticalAlign=top;verticalLabelPosition=bottom;labelPosition=center;align=center;html=1;outlineConnect=0;fillColor=#CCCCCC;strokeColor=#6881B3;gradientColor=none;gradientDirection=north;strokeWidth=2;shape=mxgraph.networks.web_server;rounded=0;shadow=0;fillStyle=auto;" vertex="1" parent="1">
          <mxGeometry x="690" y="495" width="55" height="55" as="geometry" />
        </mxCell>
        <mxCell id="PAPNwuoS_5wBKvBICMgl-22" value="" style="group" vertex="1" connectable="0" parent="1">
          <mxGeometry x="700" y="601.44" width="35" height="38.89" as="geometry" />
        </mxCell>
        <mxCell id="PAPNwuoS_5wBKvBICMgl-20" value="Build Server" style="fontColor=#0066CC;verticalAlign=top;verticalLabelPosition=bottom;labelPosition=center;align=center;html=1;outlineConnect=0;fillColor=#CCCCCC;strokeColor=#6881B3;gradientColor=none;gradientDirection=north;strokeWidth=2;shape=mxgraph.networks.server;rounded=0;shadow=0;fillStyle=auto;" vertex="1" parent="PAPNwuoS_5wBKvBICMgl-22">
          <mxGeometry width="35" height="38.89" as="geometry" />
        </mxCell>
        <mxCell id="PAPNwuoS_5wBKvBICMgl-21" value="" style="sketch=0;html=1;aspect=fixed;strokeColor=default;shadow=0;align=center;verticalAlign=top;fillColor=#000000;shape=mxgraph.gcp2.loading;rounded=0;fillStyle=auto;strokeWidth=1;fontColor=#000000;" vertex="1" parent="PAPNwuoS_5wBKvBICMgl-22">
          <mxGeometry x="19.444444444444443" y="23.334" width="15.553999999999997" height="15.553999999999997" as="geometry" />
        </mxCell>
        <mxCell id="PAPNwuoS_5wBKvBICMgl-23" value="" style="sketch=0;outlineConnect=0;fontColor=#232F3E;gradientColor=none;fillColor=#2E27AD;strokeColor=none;dashed=0;verticalLabelPosition=bottom;verticalAlign=top;align=center;html=1;fontSize=12;fontStyle=0;aspect=fixed;pointerEvents=1;shape=mxgraph.aws4.rds_mysql_instance;rounded=0;shadow=0;fillStyle=auto;strokeWidth=1;" vertex="1" parent="1">
          <mxGeometry x="600" y="470" width="42" height="42" as="geometry" />
        </mxCell>
        <mxCell id="PAPNwuoS_5wBKvBICMgl-26" style="edgeStyle=orthogonalEdgeStyle;rounded=0;orthogonalLoop=1;jettySize=auto;html=1;fontColor=#000000;" edge="1" parent="1" source="PAPNwuoS_5wBKvBICMgl-5" target="PAPNwuoS_5wBKvBICMgl-23">
          <mxGeometry relative="1" as="geometry">
            <Array as="points">
              <mxPoint x="620" y="420" />
              <mxPoint x="620" y="420" />
            </Array>
          </mxGeometry>
        </mxCell>
      </root>
    </mxGraphModel>
  </diagram>
</mxfile>
